999
"DXF R12 Output" (www.mydxf.blogspot.com)
 0 
SECTION
 2 
HEADER
 9 
$ACADVER
 1 
AC1009
 9 
$EXTMIN
 10 
 0 
 20 
 0 
 9 
$EXTMAX
 10 
 8.5 
 20 
 11 
 0 
ENDSEC
 0 
SECTION
 2 
ENTITIES
0
POLYLINE
8
Layer 1
62
7
70
1
10
0.000000
20
0.000000
66
1
0
VERTEX
8
Layer 1
10
9.921862
20
162.851292
70
0
0
VERTEX
8
Layer 1
10
10.715612
20
162.851292
70
0
0
VERTEX
8
Layer 1
10
10.847903
20
127.661752
70
0
0
VERTEX
8
Layer 1
10
12.766126
20
126.537262
70
0
0
VERTEX
8
Layer 1
10
14.419770
20
125.148181
70
0
0
VERTEX
8
Layer 1
10
15.808833
20
123.494533
70
0
0
VERTEX
8
Layer 1
10
16.933312
20
121.576343
70
0
0
VERTEX
8
Layer 1
10
17.991644
20
118.665931
70
0
0
VERTEX
8
Layer 1
10
18.785393
20
111.522189
70
0
0
VERTEX
8
Layer 1
10
19.579142
20
118.665931
70
0
0
VERTEX
8
Layer 1
10
20.578889
20
121.401752
70
0
0
VERTEX
8
Layer 1
10
21.960389
20
123.957590
70
0
0
VERTEX
8
Layer 1
10
24.228090
20
125.961377
70
0
0
VERTEX
8
Layer 1
10
26.722883
20
127.661752
70
0
0
VERTEX
8
Layer 1
10
26.855175
20
162.851292
70
0
0
VERTEX
8
Layer 1
10
27.648924
20
162.851292
70
0
0
VERTEX
8
Layer 1
10
32.667335
20
140.130828
70
0
0
VERTEX
8
Layer 1
10
37.438495
20
117.343015
70
0
0
VERTEX
8
Layer 1
10
27.913507
20
81.888893
70
0
0
VERTEX
8
Layer 1
10
27.119758
20
81.888893
70
0
0
VERTEX
8
Layer 1
10
27.119724
20
96.177566
70
0
0
VERTEX
8
Layer 1
10
26.855175
20
110.463857
70
0
0
VERTEX
8
Layer 1
10
25.559805
20
109.713959
70
0
0
VERTEX
8
Layer 1
10
24.488609
20
108.758455
70
0
0
VERTEX
8
Layer 1
10
23.641581
20
107.597320
70
0
0
VERTEX
8
Layer 1
10
23.018721
20
106.230529
70
0
0
VERTEX
8
Layer 1
10
22.383449
20
104.161912
70
0
0
VERTEX
8
Layer 1
10
21.973254
20
102.061297
70
0
0
VERTEX
8
Layer 1
10
21.788137
20
99.928634
70
0
0
VERTEX
8
Layer 1
10
21.828098
20
97.763873
70
0
0
VERTEX
8
Layer 1
10
25.532260
20
0.132746
70
0
0
VERTEX
8
Layer 1
10
12.038526
20
0.132746
70
0
0
VERTEX
8
Layer 1
10
15.742688
20
97.763873
70
0
0
VERTEX
8
Layer 1
10
15.745164
20
100.630692
70
0
0
VERTEX
8
Layer 1
10
15.327065
20
103.394299
70
0
0
VERTEX
8
Layer 1
10
14.488393
20
106.054669
70
0
0
VERTEX
8
Layer 1
10
13.229150
20
108.611776
70
0
0
VERTEX
8
Layer 1
10
12.060616
20
109.658963
70
0
0
VERTEX
8
Layer 1
10
10.715612
20
110.463857
70
0
0
VERTEX
8
Layer 1
10
10.451052
20
96.177566
70
0
0
VERTEX
8
Layer 1
10
10.451028
20
81.888893
70
0
0
VERTEX
8
Layer 1
10
9.657280
20
81.888893
70
0
0
VERTEX
8
Layer 1
10
0.132292
20
117.343015
70
0
0
VERTEX
8
Layer 1
10
4.903441
20
140.130828
70
0
0
VERTEX
8
Layer 1
10
9.921862
20
162.851292
70
0
0
VERTEX
8
Layer 1
10
9.921862
20
162.851292
70
0
0
SEQEND
8
Layer 1
 0 
ENDSEC
 0 
EOF