999
"DXF R12 Output" (www.mydxf.blogspot.com)
 0 
SECTION
 2 
HEADER
 9 
$ACADVER
 1 
AC1009
 9 
$EXTMIN
 10 
 0 
 20 
 0 
 9 
$EXTMAX
 10 
 8.5 
 20 
 11 
 0 
ENDSEC
 0 
SECTION
 2 
ENTITIES
0
POLYLINE
8
Layer 1
62
7
70
1
10
0.000000
20
0.000000
66
1
0
VERTEX
8
Layer 1
10
29.765588
20
126.074291
70
0
0
VERTEX
8
Layer 1
10
30.030171
20
126.074291
70
0
0
VERTEX
8
Layer 1
10
30.030171
20
124.222210
70
0
0
VERTEX
8
Layer 1
10
21.166640
20
66.278533
70
0
0
VERTEX
8
Layer 1
10
15.610397
20
74.480606
70
0
0
VERTEX
8
Layer 1
10
13.855805
20
68.650867
70
0
0
VERTEX
8
Layer 1
10
12.521288
20
62.738876
70
0
0
VERTEX
8
Layer 1
10
11.606847
20
56.744632
70
0
0
VERTEX
8
Layer 1
10
11.112486
20
50.668136
70
0
0
VERTEX
8
Layer 1
10
10.959119
20
44.437282
70
0
0
VERTEX
8
Layer 1
10
11.062182
20
38.238527
70
0
0
VERTEX
8
Layer 1
10
11.421676
20
32.071876
70
0
0
VERTEX
8
Layer 1
10
12.037600
20
25.937332
70
0
0
VERTEX
8
Layer 1
10
12.909955
20
19.834897
70
0
0
VERTEX
8
Layer 1
10
14.038741
20
13.764575
70
0
0
VERTEX
8
Layer 1
10
15.423957
20
7.726369
70
0
0
VERTEX
8
Layer 1
10
17.065604
20
1.720281
70
0
0
VERTEX
8
Layer 1
10
16.801020
20
1.191115
70
0
0
VERTEX
8
Layer 1
10
13.890608
20
0.132783
70
0
0
VERTEX
8
Layer 1
10
12.832276
20
0.132783
70
0
0
VERTEX
8
Layer 1
10
10.710316
20
7.884028
70
0
0
VERTEX
8
Layer 1
10
9.019819
20
15.669581
70
0
0
VERTEX
8
Layer 1
10
7.760782
20
23.489445
70
0
0
VERTEX
8
Layer 1
10
6.933206
20
31.343623
70
0
0
VERTEX
8
Layer 1
10
6.537089
20
39.232118
70
0
0
VERTEX
8
Layer 1
10
6.572431
20
47.154933
70
0
0
VERTEX
8
Layer 1
10
7.039232
20
55.112072
70
0
0
VERTEX
8
Layer 1
10
7.937490
20
63.103537
70
0
0
VERTEX
8
Layer 1
10
8.691533
20
67.197203
70
0
0
VERTEX
8
Layer 1
10
9.758674
20
71.185523
70
0
0
VERTEX
8
Layer 1
10
11.138920
20
75.068522
70
0
0
VERTEX
8
Layer 1
10
12.832276
20
78.846226
70
0
0
VERTEX
8
Layer 1
10
5.953118
20
88.900380
70
0
0
VERTEX
8
Layer 1
10
29.765588
20
126.074291
70
0
0
VERTEX
8
Layer 1
10
29.765588
20
126.074291
70
0
0
SEQEND
8
Layer 1
 0 
ENDSEC
 0 
EOF