999
"DXF R12 Output" (www.mydxf.blogspot.com)
 0 
SECTION
 2 
HEADER
 9 
$ACADVER
 1 
AC1009
 9 
$EXTMIN
 10 
 0 
 20 
 0 
 9 
$EXTMAX
 10 
 8.5 
 20 
 11 
 0 
ENDSEC
 0 
SECTION
 2 
ENTITIES
0
POLYLINE
8
Layer 1
62
7
70
1
10
0.000000
20
0.000000
66
1
0
VERTEX
8
Layer 1
10
-0.132292
20
126.074291
70
0
0
VERTEX
8
Layer 1
10
0.132292
20
126.074291
70
0
0
VERTEX
8
Layer 1
10
23.944762
20
88.900380
70
0
0
VERTEX
8
Layer 1
10
17.065604
20
78.846226
70
0
0
VERTEX
8
Layer 1
10
18.758959
20
75.068522
70
0
0
VERTEX
8
Layer 1
10
20.139205
20
71.185523
70
0
0
VERTEX
8
Layer 1
10
21.206346
20
67.197203
70
0
0
VERTEX
8
Layer 1
10
21.960389
20
63.103537
70
0
0
VERTEX
8
Layer 1
10
22.858647
20
55.112072
70
0
0
VERTEX
8
Layer 1
10
23.325448
20
47.154933
70
0
0
VERTEX
8
Layer 1
10
23.360790
20
39.232118
70
0
0
VERTEX
8
Layer 1
10
22.964673
20
31.343623
70
0
0
VERTEX
8
Layer 1
10
22.137097
20
23.489445
70
0
0
VERTEX
8
Layer 1
10
20.878060
20
15.669581
70
0
0
VERTEX
8
Layer 1
10
19.187563
20
7.884028
70
0
0
VERTEX
8
Layer 1
10
17.065604
20
0.132783
70
0
0
VERTEX
8
Layer 1
10
16.007272
20
0.132783
70
0
0
VERTEX
8
Layer 1
10
13.361442
20
1.058824
70
0
0
VERTEX
8
Layer 1
10
13.027624
20
1.327243
70
0
0
VERTEX
8
Layer 1
10
12.832276
20
1.720281
70
0
0
VERTEX
8
Layer 1
10
15.028108
20
9.863402
70
0
0
VERTEX
8
Layer 1
10
16.724126
20
18.032816
70
0
0
VERTEX
8
Layer 1
10
17.920331
20
26.228522
70
0
0
VERTEX
8
Layer 1
10
18.616721
20
34.450522
70
0
0
VERTEX
8
Layer 1
10
18.813298
20
42.698814
70
0
0
VERTEX
8
Layer 1
10
18.510061
20
50.973399
70
0
0
VERTEX
8
Layer 1
10
17.707011
20
59.274277
70
0
0
VERTEX
8
Layer 1
10
16.404146
20
67.601448
70
0
0
VERTEX
8
Layer 1
10
15.425239
20
71.067221
70
0
0
VERTEX
8
Layer 1
10
14.287482
20
74.480606
70
0
0
VERTEX
8
Layer 1
10
8.731239
20
66.278533
70
0
0
VERTEX
8
Layer 1
10
-0.132292
20
124.222210
70
0
0
VERTEX
8
Layer 1
10
-0.132292
20
126.074291
70
0
0
VERTEX
8
Layer 1
10
-0.132292
20
126.074291
70
0
0
SEQEND
8
Layer 1
 0 
ENDSEC
 0 
EOF