  0
SECTION
  2
HEADER
  9
$ACADVER
  1
AC1006
  9
$EXTMIN
 10
0.000000
 20
0.000000
 30
0.000000
  9
$EXTMAX
 10
531.000000
 20
1981.000000
 30
0.000000
  0
ENDSEC
  0
SECTION
  2
ENTITIES
  0
POLYLINE
  8
0
 66
1
 70
1
  0
VERTEX
  8
0
 10
257.547292
 20
1974.750000
 42
0.038721
  0
VERTEX
  8
0
 10
257.312093
 20
1973.722280
 42
0.000033
  0
VERTEX
  8
0
 10
253.558052
 20
1948.457813
 42
0.000358
  0
VERTEX
  8
0
 10
249.389789
 20
1920.253840
 42
0.000220
  0
VERTEX
  8
0
 10
244.514473
 20
1887.000000
 42
-0.000426
  0
VERTEX
  8
0
 10
226.106279
 20
1761.801094
 42
-0.000266
  0
VERTEX
  8
0
 10
204.338761
 20
1615.166260
 42
-0.000253
  0
VERTEX
  8
0
 10
180.806106
 20
1457.765462
 42
-0.000248
  0
VERTEX
  8
0
 10
156.982033
 20
1299.500000
 42
0.000577
  0
VERTEX
  8
0
 10
145.737280
 20
1224.464817
 42
0.017317
  0
VERTEX
  8
0
 10
143.581511
 20
1205.463149
 42
0.080694
  0
VERTEX
  8
0
 10
144.371933
 20
1195.927355
 42
0.149178
  0
VERTEX
  8
0
 10
148.332819
 20
1189.318283
 42
0.000000
  0
VERTEX
  8
0
 10
152.300165
 20
1185.734025
 42
0.000000
  0
VERTEX
  8
0
 10
159.900082
 20
1186.331668
 42
-0.009469
  0
VERTEX
  8
0
 10
172.748396
 20
1187.097546
 42
-0.001216
  0
VERTEX
  8
0
 10
200.330935
 20
1188.150855
 42
-0.000094
  0
VERTEX
  8
0
 10
231.553486
 20
1189.261240
 42
-0.208685
  0
VERTEX
  8
0
 10
232.407514
 20
1188.923981
 42
-0.209521
  0
VERTEX
  8
0
 10
233.207793
 20
1186.861657
 42
-0.000124
  0
VERTEX
  8
0
 10
230.371569
 20
1121.180751
 42
-0.001783
  0
VERTEX
  8
0
 10
227.483310
 20
1059.733967
 42
-0.003295
  0
VERTEX
  8
0
 10
224.629078
 20
1009.823925
 42
0.003999
  0
VERTEX
  8
0
 10
224.025306
 20
998.998517
 42
0.012980
  0
VERTEX
  8
0
 10
223.868847
 20
991.808768
 42
0.017377
  0
VERTEX
  8
0
 10
224.101950
 20
985.827467
 42
0.013357
  0
VERTEX
  8
0
 10
224.757212
 20
979.323925
 42
-0.034426
  0
VERTEX
  8
0
 10
225.706153
 20
963.066389
 42
-0.009923
  0
VERTEX
  8
0
 10
224.941255
 20
937.885740
 42
-0.008443
  0
VERTEX
  8
0
 10
222.768819
 20
905.557505
 42
-0.004451
  0
VERTEX
  8
0
 10
219.036860
 20
865.495990
 42
0.003897
  0
VERTEX
  8
0
 10
218.082246
 20
855.370085
 42
0.013275
  0
VERTEX
  8
0
 10
217.687328
 20
848.757895
 42
0.019656
  0
VERTEX
  8
0
 10
217.718640
 20
843.708303
 42
0.023860
  0
VERTEX
  8
0
 10
218.159202
 20
838.995990
 42
-0.031948
  0
VERTEX
  8
0
 10
218.822467
 20
830.405781
 42
-0.016311
  0
VERTEX
  8
0
 10
218.612147
 20
819.584328
 42
-0.016201
  0
VERTEX
  8
0
 10
217.672716
 20
808.486629
 42
-0.024745
  0
VERTEX
  8
0
 10
216.073381
 20
798.959868
 42
0.008554
  0
VERTEX
  8
0
 10
215.037253
 20
793.814095
 42
0.026739
  0
VERTEX
  8
0
 10
214.586203
 20
790.312975
 42
0.036580
  0
VERTEX
  8
0
 10
214.581797
 20
787.435644
 42
0.032180
  0
VERTEX
  8
0
 10
214.988817
 20
784.459868
 42
-0.037753
  0
VERTEX
  8
0
 10
216.315844
 20
773.882196
 42
-0.013568
  0
VERTEX
  8
0
 10
216.652970
 20
758.698052
 42
-0.010259
  0
VERTEX
  8
0
 10
216.133694
 20
738.302053
 42
-0.004143
  0
VERTEX
  8
0
 10
214.623730
 20
710.500000
 42
0.000762
  0
VERTEX
  8
0
 10
213.481974
 20
691.812188
 42
0.000444
  0
VERTEX
  8
0
 10
212.166951
 20
669.400428
 42
0.000444
  0
VERTEX
  8
0
 10
210.890045
 20
646.956341
 42
0.000753
  0
VERTEX
  8
0
 10
209.865856
 20
628.161031
 42
0.001250
  0
VERTEX
  8
0
 10
208.566748
 20
602.423681
 42
0.009491
  0
VERTEX
  8
0
 10
208.215108
 20
590.281413
 42
0.016778
  0
VERTEX
  8
0
 10
208.432662
 20
581.057755
 42
0.009334
  0
VERTEX
  8
0
 10
209.284358
 20
569.843469
 42
0.000000
  0
VERTEX
  8
0
 10
210.893087
 20
552.864876
 42
0.000000
  0
VERTEX
  8
0
 10
207.870960
 20
536.278410
 42
0.003123
  0
VERTEX
  8
0
 10
205.977890
 20
525.507512
 42
0.027616
  0
VERTEX
  8
0
 10
205.436025
 20
520.711991
 42
0.044600
  0
VERTEX
  8
0
 10
205.561572
 20
516.770622
 42
0.015133
  0
VERTEX
  8
0
 10
206.426451
 20
511.095972
 42
-0.021059
  0
VERTEX
  8
0
 10
207.467829
 20
503.673939
 42
-0.018756
  0
VERTEX
  8
0
 10
207.933261
 20
495.897590
 42
-0.019174
  0
VERTEX
  8
0
 10
207.820308
 20
488.869043
 42
-0.053291
  0
VERTEX
  8
0
 10
207.030083
 20
484.000000
 42
0.035873
  0
VERTEX
  8
0
 10
204.652982
 20
472.006209
 42
0.016384
  0
VERTEX
  8
0
 10
203.198319
 20
456.096551
 42
0.016322
  0
VERTEX
  8
0
 10
202.789559
 20
440.239835
 42
0.038855
  0
VERTEX
  8
0
 10
203.784405
 20
428.500000
 42
-0.042740
  0
VERTEX
  8
0
 10
204.041937
 20
425.152487
 42
-0.011963
  0
VERTEX
  8
0
 10
203.870844
 20
419.901421
 42
-0.009554
  0
VERTEX
  8
0
 10
203.337847
 20
412.864883
 42
-0.004109
  0
VERTEX
  8
0
 10
202.370519
 20
403.500000
 42
0.005737
  0
VERTEX
  8
0
 10
199.119424
 20
370.990398
 42
0.006792
  0
VERTEX
  8
0
 10
196.817350
 20
340.195076
 42
0.005861
  0
VERTEX
  8
0
 10
195.533483
 20
314.179296
 42
0.044566
  0
VERTEX
  8
0
 10
196.164324
 20
301.937079
 42
-0.034797
  0
VERTEX
  8
0
 10
196.941678
 20
291.005589
 42
-0.009323
  0
VERTEX
  8
0
 10
196.641504
 20
273.574625
 42
-0.009626
  0
VERTEX
  8
0
 10
195.671154
 20
255.986971
 42
-0.028762
  0
VERTEX
  8
0
 10
194.087157
 20
244.045448
 42
0.008245
  0
VERTEX
  8
0
 10
193.187406
 20
238.893341
 42
0.019722
  0
VERTEX
  8
0
 10
192.734601
 20
235.039735
 42
0.026415
  0
VERTEX
  8
0
 10
192.660013
 20
232.021728
 42
0.046410
  0
VERTEX
  8
0
 10
192.960764
 20
229.545448
 42
-0.036183
  0
VERTEX
  8
0
 10
194.381976
 20
219.552819
 42
-0.026455
  0
VERTEX
  8
0
 10
194.561865
 20
208.342523
 42
-0.026103
  0
VERTEX
  8
0
 10
193.546871
 20
196.974199
 42
-0.031653
  0
VERTEX
  8
0
 10
191.373606
 20
186.496844
 42
0.046113
  0
VERTEX
  8
0
 10
190.476947
 20
181.444556
 42
0.011835
  0
VERTEX
  8
0
 10
189.980557
 20
173.156050
 42
0.006575
  0
VERTEX
  8
0
 10
189.671808
 20
159.734530
 42
0.001102
  0
VERTEX
  8
0
 10
189.475041
 20
134.000000
 42
-0.003860
  0
VERTEX
  8
0
 10
189.050072
 20
101.713371
 42
-0.005701
  0
VERTEX
  8
0
 10
188.135539
 20
73.395350
 42
-0.006183
  0
VERTEX
  8
0
 10
186.653349
 20
46.980200
 42
-0.006107
  0
VERTEX
  8
0
 10
184.513530
 20
20.500000
 42
0.000604
  0
VERTEX
  8
0
 10
183.941764
 20
14.278180
 42
0.000899
  0
VERTEX
  8
0
 10
183.457854
 20
8.832812
 42
0.000378
  0
VERTEX
  8
0
 10
183.055486
 20
4.169947
 42
0.018963
  0
VERTEX
  8
0
 10
183.011847
 20
3.250000
 42
0.411407
  0
VERTEX
  8
0
 10
183.713355
 20
2.528176
 42
0.000979
  0
VERTEX
  8
0
 10
199.750036
 20
2.253752
 42
0.003194
  0
VERTEX
  8
0
 10
222.927822
 20
2.050598
 42
0.000594
  0
VERTEX
  8
0
 10
265.500000
 20
2.000000
 42
0.000000
  0
VERTEX
  8
0
 10
348.000000
 20
2.000000
 42
0.000000
  0
VERTEX
  8
0
 10
348.000000
 20
4.524981
 42
0.011179
  0
VERTEX
  8
0
 10
347.649071
 20
20.218735
 42
0.000015
  0
VERTEX
  8
0
 10
334.290822
 20
318.556732
 42
0.000111
  0
VERTEX
  8
0
 10
322.250743
 20
585.935767
 42
0.001133
  0
VERTEX
  8
0
 10
316.972569
 20
697.000000
 42
0.002407
  0
VERTEX
  8
0
 10
316.084116
 20
713.265765
 42
0.003611
  0
VERTEX
  8
0
 10
315.137854
 20
727.452470
 42
0.003067
  0
VERTEX
  8
0
 10
314.217701
 20
738.935889
 42
0.028808
  0
VERTEX
  8
0
 10
313.508638
 20
743.836435
 42
-0.022967
  0
VERTEX
  8
0
 10
311.884382
 20
754.206444
 42
-0.013992
  0
VERTEX
  8
0
 10
310.875205
 20
766.567701
 42
-0.013935
  0
VERTEX
  8
0
 10
310.554398
 20
779.091478
 42
-0.021092
  0
VERTEX
  8
0
 10
311.038589
 20
789.980834
 42
-0.077932
  0
VERTEX
  8
0
 10
320.346832
 20
827.664371
 42
-0.098135
  0
VERTEX
  8
0
 10
340.402081
 20
857.401098
 42
-0.089627
  0
VERTEX
  8
0
 10
371.887673
 20
879.081465
 42
-0.054957
  0
VERTEX
  8
0
 10
414.860079
 20
893.057393
 42
-0.002076
  0
VERTEX
  8
0
 10
418.522516
 20
893.801652
 42
-0.002965
  0
VERTEX
  8
0
 10
421.779342
 20
894.429359
 42
-0.001631
  0
VERTEX
  8
0
 10
424.535913
 20
894.934416
 42
-0.044516
  0
VERTEX
  8
0
 10
425.271078
 20
895.000000
 42
-0.416669
  0
VERTEX
  8
0
 10
426.125639
 20
894.138251
 42
-0.000131
  0
VERTEX
  8
0
 10
425.665546
 20
840.871711
 42
-0.002063
  0
VERTEX
  8
0
 10
425.043605
 20
793.126622
 42
-0.006439
  0
VERTEX
  8
0
 10
424.078552
 20
761.000000
 42
0.003680
  0
VERTEX
  8
0
 10
423.685104
 20
749.936558
 42
0.015238
  0
VERTEX
  8
0
 10
423.700397
 20
743.248922
 42
0.022216
  0
VERTEX
  8
0
 10
424.113875
 20
737.902726
 42
0.016098
  0
VERTEX
  8
0
 10
425.028973
 20
732.000000
 42
-0.004207
  0
VERTEX
  8
0
 10
425.764137
 20
727.903804
 42
-0.003298
  0
VERTEX
  8
0
 10
426.494779
 20
723.449249
 42
-0.003335
  0
VERTEX
  8
0
 10
427.119525
 20
719.296110
 42
-0.008172
  0
VERTEX
  8
0
 10
427.508644
 20
716.231486
 42
0.014153
  0
VERTEX
  8
0
 10
427.940443
 20
713.128218
 42
0.044764
  0
VERTEX
  8
0
 10
428.471360
 20
711.100063
 42
0.070355
  0
VERTEX
  8
0
 10
429.175800
 20
709.766476
 42
0.113723
  0
VERTEX
  8
0
 10
430.138108
 20
708.926087
 42
0.106324
  0
VERTEX
  8
0
 10
432.322972
 20
708.298898
 42
0.168104
  0
VERTEX
  8
0
 10
434.185179
 20
708.805074
 42
0.118439
  0
VERTEX
  8
0
 10
435.784637
 20
710.569060
 42
0.040568
  0
VERTEX
  8
0
 10
437.200250
 20
713.741987
 42
0.000954
  0
VERTEX
  8
0
 10
438.380118
 20
717.113296
 42
0.000033
  0
VERTEX
  8
0
 10
442.922142
 20
730.174209
 42
0.000062
  0
VERTEX
  8
0
 10
448.285048
 20
745.605151
 42
0.000044
  0
VERTEX
  8
0
 10
454.326370
 20
763.000000
 42
-0.000764
  0
VERTEX
  8
0
 10
468.935683
 20
804.869878
 42
-0.000978
  0
VERTEX
  8
0
 10
482.525181
 20
843.384966
 42
-0.000972
  0
VERTEX
  8
0
 10
496.338307
 20
882.052687
 42
-0.000738
  0
VERTEX
  8
0
 10
511.626685
 20
924.392658
 42
0.001142
  0
VERTEX
  8
0
 10
521.348401
 20
951.384499
 42
0.007646
  0
VERTEX
  8
0
 10
525.945440
 20
964.887763
 42
0.014120
  0
VERTEX
  8
0
 10
528.360884
 20
973.144476
 42
0.064179
  0
VERTEX
  8
0
 10
529.000000
 20
978.103162
 42
0.053660
  0
VERTEX
  8
0
 10
528.493941
 20
982.805040
 42
0.008421
  0
VERTEX
  8
0
 10
526.355203
 20
991.887164
 42
0.006306
  0
VERTEX
  8
0
 10
522.739877
 20
1005.437701
 42
0.001625
  0
VERTEX
  8
0
 10
516.559256
 20
1027.210503
 42
-0.002005
  0
VERTEX
  8
0
 10
497.685385
 20
1093.891388
 42
-0.002078
  0
VERTEX
  8
0
 10
479.571596
 20
1159.940463
 42
-0.002053
  0
VERTEX
  8
0
 10
461.805949
 20
1226.883460
 42
-0.001857
  0
VERTEX
  8
0
 10
443.976532
 20
1296.250000
 42
0.000000
  0
VERTEX
  8
0
 10
435.688256
 20
1329.000000
 42
0.000000
  0
VERTEX
  8
0
 10
430.844128
 20
1329.000000
 42
0.000000
  0
VERTEX
  8
0
 10
426.000000
 20
1329.000000
 42
0.000000
  0
VERTEX
  8
0
 10
426.000000
 20
1321.906150
 42
-0.005102
  0
VERTEX
  8
0
 10
425.952502
 20
1317.251308
 42
-0.000377
  0
VERTEX
  8
0
 10
425.682932
 20
1304.514558
 42
-0.000524
  0
VERTEX
  8
0
 10
425.334024
 20
1289.323437
 42
-0.000398
  0
VERTEX
  8
0
 10
424.920621
 20
1272.662307
 42
0.002302
  0
VERTEX
  8
0
 10
424.460058
 20
1250.733011
 42
0.000699
  0
VERTEX
  8
0
 10
423.961314
 20
1217.482691
 42
0.000700
  0
VERTEX
  8
0
 10
423.506573
 20
1180.216860
 42
0.000763
  0
VERTEX
  8
0
 10
423.170621
 20
1144.006157
 42
0.000000
  0
VERTEX
  8
0
 10
422.500000
 20
1057.500000
 42
0.000000
  0
VERTEX
  8
0
 10
415.000000
 20
1056.743215
 42
0.007675
  0
VERTEX
  8
0
 10
392.238688
 20
1054.092990
 42
0.007270
  0
VERTEX
  8
0
 10
369.153326
 20
1050.703030
 42
0.006145
  0
VERTEX
  8
0
 10
349.022692
 20
1047.192897
 42
0.043778
  0
VERTEX
  8
0
 10
339.500000
 20
1044.532557
 42
0.018716
  0
VERTEX
  8
0
 10
332.378077
 20
1041.543658
 42
0.008991
  0
VERTEX
  8
0
 10
323.466934
 20
1037.208694
 42
0.009001
  0
VERTEX
  8
0
 10
314.608404
 20
1032.497951
 42
0.016560
  0
VERTEX
  8
0
 10
307.604658
 20
1028.301022
 42
-0.010955
  0
VERTEX
  8
0
 10
304.591820
 20
1026.449401
 42
-0.028113
  0
VERTEX
  8
0
 10
302.315244
 20
1025.284520
 42
-0.035330
  0
VERTEX
  8
0
 10
300.682414
 20
1024.695687
 42
-0.334916
  0
VERTEX
  8
0
 10
300.031682
 20
1024.948737
 42
-0.112979
  0
VERTEX
  8
0
 10
299.404676
 20
1026.787848
 42
-0.001668
  0
VERTEX
  8
0
 10
298.253350
 20
1038.235982
 42
-0.003883
  0
VERTEX
  8
0
 10
296.948754
 20
1052.834321
 42
-0.001630
  0
VERTEX
  8
0
 10
295.409675
 20
1072.500000
 42
-0.011942
  0
VERTEX
  8
0
 10
294.270089
 20
1094.842422
 42
-0.002373
  0
VERTEX
  8
0
 10
293.376482
 20
1134.847090
 42
-0.000978
  0
VERTEX
  8
0
 10
292.714184
 20
1177.208433
 42
-0.049822
  0
VERTEX
  8
0
 10
293.422988
 20
1185.441182
 42
-0.018960
  0
VERTEX
  8
0
 10
293.966065
 20
1187.831993
 42
-0.185111
  0
VERTEX
  8
0
 10
294.563605
 20
1188.656104
 42
-0.165291
  0
VERTEX
  8
0
 10
295.592629
 20
1188.918574
 42
-0.014409
  0
VERTEX
  8
0
 10
298.313875
 20
1188.627127
 42
0.026267
  0
VERTEX
  8
0
 10
301.312680
 20
1188.377689
 42
0.000841
  0
VERTEX
  8
0
 10
313.481207
 20
1188.027335
 42
0.001623
  0
VERTEX
  8
0
 10
327.838168
 20
1187.684775
 42
0.001126
  0
VERTEX
  8
0
 10
344.068957
 20
1187.386776
 42
0.000000
  0
VERTEX
  8
0
 10
385.637913
 20
1186.717186
 42
0.000000
  0
VERTEX
  8
0
 10
387.335428
 20
1190.294433
 42
0.148172
  0
VERTEX
  8
0
 10
388.120053
 20
1195.526278
 42
0.000914
  0
VERTEX
  8
0
 10
381.026322
 20
1243.378261
 42
0.001331
  0
VERTEX
  8
0
 10
368.384326
 20
1326.094901
 42
0.000075
  0
VERTEX
  8
0
 10
328.507567
 20
1582.185840
 42
0.000033
  0
VERTEX
  8
0
 10
305.259614
 20
1731.272821
 42
0.000055
  0
VERTEX
  8
0
 10
285.593921
 20
1857.240528
 42
0.000002
  0
VERTEX
  8
0
 10
267.821666
 20
1970.993903
 42
0.012397
  0
VERTEX
  8
0
 10
267.411640
 20
1973.250000
 42
0.050131
  0
VERTEX
  8
0
 10
266.927010
 20
1974.790719
 42
0.167777
  0
VERTEX
  8
0
 10
266.225055
 20
1975.563533
 42
0.109890
  0
VERTEX
  8
0
 10
265.003800
 20
1975.917421
 42
0.015788
  0
VERTEX
  8
0
 10
262.389160
 20
1976.000000
 42
0.022582
  0
VERTEX
  8
0
 10
260.542328
 20
1975.916546
 42
0.040606
  0
VERTEX
  8
0
 10
259.048888
 20
1975.657909
 42
0.051236
  0
VERTEX
  8
0
 10
257.987576
 20
1975.264438
 42
0.205574
  0
SEQEND
  0
ENDSEC
  0
EOF
