  0
SECTION
  2
HEADER
  9
$ACADVER
  1
AC1006
  9
$EXTMIN
 10
0.000000
 20
0.000000
 30
0.000000
  9
$EXTMAX
 10
531.000000
 20
1981.000000
 30
0.000000
  0
ENDSEC
  0
SECTION
  2
ENTITIES
  0
POLYLINE
  8
0
 66
1
 70
1
  0
VERTEX
  8
0
 10
260.527262
 20
1973.750000
 42
0.017245
  0
VERTEX
  8
0
 10
260.182817
 20
1971.947044
 42
0.000040
  0
VERTEX
  8
0
 10
256.038181
 20
1945.282813
 42
0.000265
  0
VERTEX
  8
0
 10
251.387147
 20
1915.239823
 42
0.000165
  0
VERTEX
  8
0
 10
245.962636
 20
1880.000000
 42
-0.000351
  0
VERTEX
  8
0
 10
226.072412
 20
1751.103965
 42
-0.000224
  0
VERTEX
  8
0
 10
202.761487
 20
1601.184358
 42
-0.000205
  0
VERTEX
  8
0
 10
176.845289
 20
1435.446060
 42
-0.000168
  0
VERTEX
  8
0
 10
149.014119
 20
1258.327501
 42
0.000585
  0
VERTEX
  8
0
 10
142.844893
 20
1218.851572
 42
0.006639
  0
VERTEX
  8
0
 10
140.630326
 20
1203.202000
 42
0.013173
  0
VERTEX
  8
0
 10
139.745229
 20
1194.464455
 42
0.118142
  0
VERTEX
  8
0
 10
140.356899
 20
1190.688246
 42
0.000000
  0
VERTEX
  8
0
 10
141.805402
 20
1187.221490
 42
0.000000
  0
VERTEX
  8
0
 10
158.652701
 20
1186.469038
 42
0.010988
  0
VERTEX
  8
0
 10
173.957844
 20
1186.122178
 42
0.005847
  0
VERTEX
  8
0
 10
192.906658
 20
1186.330777
 42
0.005761
  0
VERTEX
  8
0
 10
211.302660
 20
1186.960576
 42
0.015163
  0
VERTEX
  8
0
 10
224.456841
 20
1187.963113
 42
-0.006197
  0
VERTEX
  8
0
 10
227.928905
 20
1188.290441
 42
-0.009523
  0
VERTEX
  8
0
 10
230.942163
 20
1188.479191
 42
-0.004511
  0
VERTEX
  8
0
 10
233.480842
 20
1188.566785
 42
-0.205478
  0
VERTEX
  8
0
 10
233.956841
 20
1188.376749
 42
-0.198075
  0
VERTEX
  8
0
 10
234.774729
 20
1186.412466
 42
-0.000522
  0
VERTEX
  8
0
 10
234.847010
 20
1156.466324
 42
-0.003591
  0
VERTEX
  8
0
 10
234.682379
 20
1128.151660
 42
-0.007187
  0
VERTEX
  8
0
 10
234.069892
 20
1105.779323
 42
-0.004656
  0
VERTEX
  8
0
 10
232.699619
 20
1078.963155
 42
-0.004650
  0
VERTEX
  8
0
 10
230.829726
 20
1052.165318
 42
-0.001050
  0
VERTEX
  8
0
 10
228.765255
 20
1026.753995
 42
-0.177385
  0
VERTEX
  8
0
 10
227.621635
 20
1024.288302
 42
-0.331955
  0
VERTEX
  8
0
 10
227.291036
 20
1024.240235
 42
-0.003780
  0
VERTEX
  8
0
 10
225.218078
 20
1025.384028
 42
-0.009672
  0
VERTEX
  8
0
 10
222.795199
 20
1026.807232
 42
-0.005935
  0
VERTEX
  8
0
 10
219.993626
 20
1028.572744
 42
0.021886
  0
VERTEX
  8
0
 10
211.661230
 20
1033.459596
 42
0.010307
  0
VERTEX
  8
0
 10
200.511326
 20
1039.068015
 42
0.009639
  0
VERTEX
  8
0
 10
189.565352
 20
1044.037209
 42
0.038036
  0
VERTEX
  8
0
 10
182.571365
 20
1046.439396
 42
0.022261
  0
VERTEX
  8
0
 10
173.943220
 20
1048.281039
 42
0.003285
  0
VERTEX
  8
0
 10
156.328978
 20
1051.109253
 42
0.004008
  0
VERTEX
  8
0
 10
137.437153
 20
1053.860591
 42
0.006700
  0
VERTEX
  8
0
 10
121.500000
 20
1055.834106
 42
0.000000
  0
VERTEX
  8
0
 10
105.500000
 20
1057.598056
 42
0.000000
  0
VERTEX
  8
0
 10
104.873155
 20
1138.049028
 42
0.001383
  0
VERTEX
  8
0
 10
104.243400
 20
1197.694230
 42
0.001164
  0
VERTEX
  8
0
 10
103.254503
 20
1260.865315
 42
0.000143
  0
VERTEX
  8
0
 10
102.103504
 20
1323.864933
 42
0.072714
  0
VERTEX
  8
0
 10
101.461665
 20
1327.750000
 42
0.205090
  0
VERTEX
  8
0
 10
101.015887
 20
1328.265005
 42
0.050688
  0
VERTEX
  8
0
 10
99.943481
 20
1328.658249
 42
0.040246
  0
VERTEX
  8
0
 10
98.435671
 20
1328.916656
 42
0.022324
  0
VERTEX
  8
0
 10
96.569929
 20
1329.000000
 42
0.016789
  0
VERTEX
  8
0
 10
93.768026
 20
1328.905889
 42
0.133992
  0
VERTEX
  8
0
 10
92.557050
 20
1328.486293
 42
0.154810
  0
VERTEX
  8
0
 10
91.812588
 20
1327.534300
 42
0.024651
  0
VERTEX
  8
0
 10
91.087915
 20
1325.250000
 42
0.002783
  0
VERTEX
  8
0
 10
90.432409
 20
1322.707652
 42
0.000157
  0
VERTEX
  8
0
 10
88.447375
 20
1314.817188
 42
0.000241
  0
VERTEX
  8
0
 10
86.092241
 20
1305.424012
 42
0.000177
  0
VERTEX
  8
0
 10
83.487896
 20
1295.000000
 42
-0.002587
  0
VERTEX
  8
0
 10
68.100505
 20
1234.649921
 42
-0.002011
  0
VERTEX
  8
0
 10
50.758938
 20
1169.157026
 42
-0.001953
  0
VERTEX
  8
0
 10
32.269522
 20
1101.501128
 42
-0.002007
  0
VERTEX
  8
0
 10
13.418147
 20
1034.608407
 42
0.000945
  0
VERTEX
  8
0
 10
5.028973
 20
1005.080479
 42
0.010067
  0
VERTEX
  8
0
 10
1.882427
 20
992.999474
 42
0.025002
  0
VERTEX
  8
0
 10
0.468760
 20
985.431477
 42
0.033681
  0
VERTEX
  8
0
 10
0.000000
 20
978.480605
 42
0.000000
  0
VERTEX
  8
0
 10
0.000000
 20
969.244396
 42
0.000000
  0
VERTEX
  8
0
 10
11.593105
 20
937.372198
 42
-0.001334
  0
VERTEX
  8
0
 10
29.591886
 20
887.475289
 42
-0.000837
  0
VERTEX
  8
0
 10
50.386274
 20
829.034506
 42
-0.000840
  0
VERTEX
  8
0
 10
70.671020
 20
771.414732
 42
-0.001530
  0
VERTEX
  8
0
 10
87.014002
 20
724.279425
 42
0.006982
  0
VERTEX
  8
0
 10
90.697505
 20
714.018568
 42
0.063986
  0
VERTEX
  8
0
 10
92.907927
 20
709.838485
 42
0.200889
  0
VERTEX
  8
0
 10
95.100170
 20
708.463823
 42
0.165223
  0
VERTEX
  8
0
 10
97.847039
 20
708.918138
 42
0.216034
  0
VERTEX
  8
0
 10
99.000069
 20
710.422747
 42
0.035520
  0
VERTEX
  8
0
 10
99.588510
 20
714.131889
 42
0.014381
  0
VERTEX
  8
0
 10
99.993441
 20
721.158344
 42
0.001225
  0
VERTEX
  8
0
 10
100.469693
 20
739.223537
 42
0.002828
  0
VERTEX
  8
0
 10
100.750846
 20
754.625527
 42
0.000812
  0
VERTEX
  8
0
 10
101.012620
 20
778.479152
 42
0.000817
  0
VERTEX
  8
0
 10
101.220275
 20
805.385997
 42
0.000868
  0
VERTEX
  8
0
 10
101.334881
 20
831.748045
 42
-0.000691
  0
VERTEX
  8
0
 10
101.472778
 20
866.292113
 42
-0.004761
  0
VERTEX
  8
0
 10
101.725461
 20
883.254790
 42
-0.002695
  0
VERTEX
  8
0
 10
102.051746
 20
894.197701
 42
-0.403529
  0
VERTEX
  8
0
 10
102.879595
 20
894.998045
 42
-0.047346
  0
VERTEX
  8
0
 10
103.836115
 20
894.908635
 42
-0.001898
  0
VERTEX
  8
0
 10
107.267428
 20
894.242954
 42
-0.003323
  0
VERTEX
  8
0
 10
111.327397
 20
893.411231
 42
-0.002344
  0
VERTEX
  8
0
 10
115.879595
 20
892.424777
 42
-0.026255
  0
VERTEX
  8
0
 10
138.953351
 20
886.024361
 42
-0.037650
  0
VERTEX
  8
0
 10
158.505720
 20
877.795761
 42
-0.041164
  0
VERTEX
  8
0
 10
175.217543
 20
867.413615
 42
-0.042910
  0
VERTEX
  8
0
 10
189.753429
 20
854.562874
 42
-0.037919
  0
VERTEX
  8
0
 10
199.099437
 20
843.129537
 42
-0.040111
  0
VERTEX
  8
0
 10
206.416738
 20
830.620863
 42
-0.038666
  0
VERTEX
  8
0
 10
211.849820
 20
816.688744
 42
-0.030888
  0
VERTEX
  8
0
 10
215.569252
 20
801.000000
 42
-0.035037
  0
VERTEX
  8
0
 10
216.770745
 20
789.141803
 42
-0.013575
  0
VERTEX
  8
0
 10
216.833246
 20
772.622300
 42
-0.013704
  0
VERTEX
  8
0
 10
215.958878
 20
755.415008
 42
-0.022748
  0
VERTEX
  8
0
 10
214.167129
 20
741.000000
 42
0.017166
  0
VERTEX
  8
0
 10
213.026261
 20
732.589294
 42
0.007367
  0
VERTEX
  8
0
 10
212.055451
 20
721.297040
 42
0.005090
  0
VERTEX
  8
0
 10
211.101775
 20
705.643018
 42
0.001656
  0
VERTEX
  8
0
 10
210.005015
 20
682.500000
 42
-0.000236
  0
VERTEX
  8
0
 10
208.905955
 20
657.827493
 42
-0.000061
  0
VERTEX
  8
0
 10
207.114390
 20
618.140625
 42
-0.000062
  0
VERTEX
  8
0
 10
205.061487
 20
572.913276
 42
-0.000064
  0
VERTEX
  8
0
 10
203.011481
 20
528.000000
 42
0.000233
  0
VERTEX
  8
0
 10
195.646565
 20
365.437649
 42
0.000190
  0
VERTEX
  8
0
 10
187.914458
 20
191.518505
 42
0.000025
  0
VERTEX
  8
0
 10
180.255874
 20
17.569545
 42
0.010988
  0
VERTEX
  8
0
 10
180.000000
 20
5.927572
 42
0.000000
  0
VERTEX
  8
0
 10
180.000000
 20
2.000000
 42
0.000000
  0
VERTEX
  8
0
 10
262.500000
 20
2.000000
 42
0.000591
  0
VERTEX
  8
0
 10
305.182392
 20
2.050467
 42
0.003212
  0
VERTEX
  8
0
 10
328.317731
 20
2.253803
 42
0.001000
  0
VERTEX
  8
0
 10
344.287370
 20
2.528699
 42
0.408598
  0
VERTEX
  8
0
 10
345.000000
 20
3.255152
 42
0.014380
  0
VERTEX
  8
0
 10
344.971824
 20
4.234634
 42
0.000075
  0
VERTEX
  8
0
 10
344.417644
 20
13.833840
 42
0.000336
  0
VERTEX
  8
0
 10
343.777438
 20
24.766992
 42
0.000213
  0
VERTEX
  8
0
 10
343.017512
 20
37.505152
 42
-0.002166
  0
VERTEX
  8
0
 10
336.296810
 20
158.081651
 42
-0.002022
  0
VERTEX
  8
0
 10
330.454293
 20
281.501083
 42
-0.001937
  0
VERTEX
  8
0
 10
325.384370
 20
410.161249
 42
-0.001629
  0
VERTEX
  8
0
 10
320.985422
 20
546.500000
 42
0.002003
  0
VERTEX
  8
0
 10
320.413730
 20
563.816922
 42
0.000894
  0
VERTEX
  8
0
 10
319.528924
 20
586.612500
 42
0.000885
  0
VERTEX
  8
0
 10
318.507104
 20
610.724514
 42
0.001199
  0
VERTEX
  8
0
 10
317.493356
 20
632.500000
 42
-0.000990
  0
VERTEX
  8
0
 10
312.024033
 20
748.930743
 42
-0.000835
  0
VERTEX
  8
0
 10
306.685921
 20
872.162262
 42
-0.000850
  0
VERTEX
  8
0
 10
301.884725
 20
992.368078
 42
-0.001199
  0
VERTEX
  8
0
 10
298.045475
 20
1099.500000
 42
0.000271
  0
VERTEX
  8
0
 10
297.246325
 20
1123.020305
 42
0.000337
  0
VERTEX
  8
0
 10
296.476547
 20
1144.893339
 42
0.000273
  0
VERTEX
  8
0
 10
295.807714
 20
1163.260646
 42
0.002551
  0
VERTEX
  8
0
 10
295.474557
 20
1171.179452
 42
0.000000
  0
VERTEX
  8
0
 10
294.876295
 20
1183.858903
 42
0.000000
  0
VERTEX
  8
0
 10
299.188147
 20
1184.434720
 42
-0.019811
  0
VERTEX
  8
0
 10
307.838803
 20
1185.242790
 42
-0.002754
  0
VERTEX
  8
0
 10
325.832827
 20
1186.107457
 42
-0.003423
  0
VERTEX
  8
0
 10
344.655749
 20
1186.778998
 42
-0.007108
  0
VERTEX
  8
0
 10
359.348871
 20
1186.993532
 42
0.009164
  0
VERTEX
  8
0
 10
371.951311
 20
1187.229380
 42
0.056084
  0
VERTEX
  8
0
 10
378.374908
 20
1188.194245
 42
0.116878
  0
VERTEX
  8
0
 10
382.149933
 20
1190.226471
 42
0.112591
  0
VERTEX
  8
0
 10
384.673705
 20
1193.761492
 42
0.121710
  0
VERTEX
  8
0
 10
385.277131
 20
1197.660396
 42
0.009240
  0
VERTEX
  8
0
 10
384.127585
 20
1208.346803
 42
0.005420
  0
VERTEX
  8
0
 10
381.533879
 20
1227.233218
 42
0.000491
  0
VERTEX
  8
0
 10
374.496446
 20
1274.339170
 42
-0.000246
  0
VERTEX
  8
0
 10
349.901844
 20
1438.417045
 42
-0.000166
  0
VERTEX
  8
0
 10
321.994768
 20
1625.645529
 42
-0.000163
  0
VERTEX
  8
0
 10
295.907136
 20
1801.460884
 42
-0.000474
  0
VERTEX
  8
0
 10
278.031334
 20
1923.000000
 42
0.000307
  0
VERTEX
  8
0
 10
275.279690
 20
1941.752178
 42
0.000478
  0
VERTEX
  8
0
 10
272.882217
 20
1957.914062
 42
0.000130
  0
VERTEX
  8
0
 10
270.774427
 20
1972.005069
 42
0.016588
  0
VERTEX
  8
0
 10
270.453448
 20
1973.750000
 42
0.079229
  0
VERTEX
  8
0
 10
269.992171
 20
1974.928029
 42
0.154484
  0
VERTEX
  8
0
 10
269.249688
 20
1975.596391
 42
0.090408
  0
VERTEX
  8
0
 10
267.965138
 20
1975.918976
 42
0.016430
  0
VERTEX
  8
0
 10
265.500000
 20
1976.000000
 42
0.016550
  0
VERTEX
  8
0
 10
263.038378
 20
1975.918498
 42
0.089919
  0
VERTEX
  8
0
 10
261.748749
 20
1975.595310
 42
0.152843
  0
VERTEX
  8
0
 10
260.998912
 20
1974.926637
 42
0.079154
  0
SEQEND
  0
ENDSEC
  0
EOF
