<?xml version="1.0" encoding="UTF-8"?>
<!DOCTYPE svg PUBLIC "-//W3C//DTD SVG 1.1//EN" "http://www.w3.org/Graphics/SVG/1.1/DTD/svg11.dtd">
<svg xmlns="http://www.w3.org/2000/svg" version="1.1" width="170px" height="634px" style="shape-rendering:geometricPrecision; text-rendering:geometricPrecision; image-rendering:optimizeQuality; fill-rule:evenodd; clip-rule:evenodd" xmlns:xlink="http://www.w3.org/1999/xlink">
<g><path style="opacity:0.905" fill="#000000" d="M 102.5,448.5 C 104.069,510.243 106.735,571.909 110.5,633.5C 92.8333,633.5 75.1667,633.5 57.5,633.5C 60.8196,556.126 64.3196,478.126 68,399.5C 74.249,369.634 62.4157,352.301 32.5,347.5C 32.6666,367.169 32.5,386.836 32,406.5C 31.2825,407.451 30.4491,407.617 29.5,407C 19.7702,378.638 9.7702,350.472 -0.5,322.5C -0.5,321.5 -0.5,320.5 -0.5,319.5C 10.2589,282.805 20.2589,245.805 29.5,208.5C 30.5,208.5 31.5,208.5 32.5,208.5C 33.4229,237.487 33.7562,266.487 33.5,295.5C 41.8755,296.271 50.2088,297.438 58.5,299C 63.6944,300.847 68.5278,303.347 73,306.5C 74.9405,289.101 75.6072,271.434 75,253.5C 65.5196,254.585 55.6863,254.752 45.5,254C 44.9415,253.275 44.6082,252.442 44.5,251.5C 57.687,168.19 70.687,84.857 83.5,1.5C 84.5,1.5 85.5,1.5 86.5,1.5C 98.6687,84.3467 111.002,167.18 123.5,250C 123.646,252.188 122.646,253.521 120.5,254C 111.985,254.026 103.318,254.359 94.5,255C 96.5816,319.621 99.2483,384.121 102.5,448.5 Z"/></g>
<g><path style="opacity:0.035" fill="#000000" d="M 102.5,445.5 C 103.833,446.167 103.833,446.167 102.5,445.5 Z"/></g>
<g><path style="opacity:0.035" fill="#000000" d="M 102.5,447.5 C 103.833,448.167 103.833,448.167 102.5,447.5 Z"/></g>
<g><path style="opacity:0.035" fill="#000000" d="M 103.5,467.5 C 104.833,468.167 104.833,468.167 103.5,467.5 Z"/></g>
<g><path style="opacity:0.035" fill="#000000" d="M 103.5,469.5 C 104.833,470.167 104.833,470.167 103.5,469.5 Z"/></g>
<g><path style="opacity:0.035" fill="#000000" d="M 103.5,471.5 C 104.833,472.167 104.833,472.167 103.5,471.5 Z"/></g>
<g><path style="opacity:0.035" fill="#000000" d="M 103.5,473.5 C 104.833,474.167 104.833,474.167 103.5,473.5 Z"/></g>
<g><path style="opacity:0.035" fill="#000000" d="M 104.5,489.5 C 105.833,490.167 105.833,490.167 104.5,489.5 Z"/></g>
</svg>
