<?xml version="1.0" encoding="UTF-8"?>
<!DOCTYPE svg PUBLIC "-//W3C//DTD SVG 1.1//EN" "http://www.w3.org/Graphics/SVG/1.1/DTD/svg11.dtd">
<svg xmlns="http://www.w3.org/2000/svg" version="1.1" width="170px" height="634px" style="shape-rendering:geometricPrecision; text-rendering:geometricPrecision; image-rendering:optimizeQuality; fill-rule:evenodd; clip-rule:evenodd" xmlns:xlink="http://www.w3.org/1999/xlink">
<g><path style="opacity:0.912" fill="#000000" d="M 169.5,319.5 C 169.5,320.5 169.5,321.5 169.5,322.5C 159.23,350.472 149.23,378.638 139.5,407C 138.551,407.617 137.718,407.451 137,406.5C 136.788,403.242 136.288,400.076 135.5,397C 136.162,380.506 136.495,364.006 136.5,347.5C 106.598,352.267 94.7643,369.601 101,399.5C 104.651,477.497 108.151,555.497 111.5,633.5C 93.8333,633.5 76.1667,633.5 58.5,633.5C 60.459,614.659 61.1256,595.826 60.5,577C 62.5499,571.074 62.8833,565.074 61.5,559C 63.3185,551.037 63.6518,543.037 62.5,535C 62.9552,522.923 63.9552,510.756 65.5,498.5C 64.3233,491.896 64.6566,485.062 66.5,478C 66.7807,474.439 66.4473,471.105 65.5,468C 66.1667,464.333 66.8333,460.667 67.5,457C 67.1044,453.303 66.771,449.637 66.5,446C 67.3503,428.541 68.3503,411.041 69.5,393.5C 69.6214,389.4 69.2881,385.233 68.5,381C 70.2379,375.043 70.5712,369.043 69.5,363C 70.832,350.887 71.832,338.72 72.5,326.5C 72.24,323.263 71.9066,320.096 71.5,317C 72.9308,296.029 73.9308,274.863 74.5,253.5C 65.5063,253.584 57.0063,253.917 49,254.5C 46.8746,253.516 45.7079,251.85 45.5,249.5C 58.0082,167.094 70.3415,84.4269 82.5,1.5C 83.5,1.5 84.5,1.5 85.5,1.5C 98.4983,84.824 111.498,168.157 124.5,251.5C 124.392,252.442 124.059,253.275 123.5,254C 113.221,254.366 103.387,254.199 94,253.5C 93.3692,271.216 94.0358,288.883 96,306.5C 100.472,303.347 105.306,300.847 110.5,299C 118.791,297.438 127.125,296.271 135.5,295.5C 135.3,265.43 135.634,236.43 136.5,208.5C 137.5,208.5 138.5,208.5 139.5,208.5C 148.742,245.81 158.742,282.81 169.5,319.5 Z"/></g>
<g><path style="opacity:0.035" fill="#000000" d="M 65.5,448.5 C 66.8333,449.167 66.8333,449.167 65.5,448.5 Z"/></g>
<g><path style="opacity:0.035" fill="#000000" d="M 64.5,472.5 C 65.8333,473.167 65.8333,473.167 64.5,472.5 Z"/></g>
<g><path style="opacity:0.035" fill="#000000" d="M 63.5,496.5 C 64.8333,497.167 64.8333,497.167 63.5,496.5 Z"/></g>
</svg>
