999
"DXF R12 Output" (www.mydxf.blogspot.com)
 0 
SECTION
 2 
HEADER
 9 
$ACADVER
 1 
AC1009
 9 
$EXTMIN
 10 
 0 
 20 
 0 
 9 
$EXTMAX
 10 
 8.5 
 20 
 11 
 0 
ENDSEC
 0 
SECTION
 2 
ENTITIES
0
POLYLINE
8
Layer 1
62
7
70
1
10
0.000000
20
0.000000
66
1
0
VERTEX
8
Layer 1
10
43.259321
20
80.566144
70
0
0
VERTEX
8
Layer 1
10
43.259321
20
79.772395
70
0
0
VERTEX
8
Layer 1
10
35.586413
20
57.944298
70
0
0
VERTEX
8
Layer 1
10
35.232765
20
57.854869
70
0
0
VERTEX
8
Layer 1
10
34.924956
20
58.076589
70
0
0
VERTEX
8
Layer 1
10
34.528081
20
59.796379
70
0
0
VERTEX
8
Layer 1
10
34.664011
20
66.383272
70
0
0
VERTEX
8
Layer 1
10
34.528081
20
73.025529
70
0
0
VERTEX
8
Layer 1
10
32.212960
20
72.686602
70
0
0
VERTEX
8
Layer 1
10
30.140402
20
71.890104
70
0
0
VERTEX
8
Layer 1
10
28.310385
20
70.636059
70
0
0
VERTEX
8
Layer 1
10
26.722883
20
68.924492
70
0
0
VERTEX
8
Layer 1
10
26.024887
20
67.528916
70
0
0
VERTEX
8
Layer 1
10
25.664551
20
66.014079
70
0
0
VERTEX
8
Layer 1
10
26.969474
20
33.073298
70
0
0
VERTEX
8
Layer 1
10
28.442673
20
0.132913
70
0
0
VERTEX
8
Layer 1
10
14.684356
20
0.132913
70
0
0
VERTEX
8
Layer 1
10
14.419774
20
3.704783
70
0
0
VERTEX
8
Layer 1
10
14.840880
20
5.010930
70
0
0
VERTEX
8
Layer 1
10
14.684356
20
6.350613
70
0
0
VERTEX
8
Layer 1
10
15.742688
20
22.225593
70
0
0
VERTEX
8
Layer 1
10
15.707443
20
23.798804
70
0
0
VERTEX
8
Layer 1
10
15.478106
20
25.400589
70
0
0
VERTEX
8
Layer 1
10
16.101400
20
32.139518
70
0
0
VERTEX
8
Layer 1
10
16.536438
20
38.894322
70
0
0
VERTEX
8
Layer 1
10
16.506530
20
40.063713
70
0
0
VERTEX
8
Layer 1
10
16.271854
20
41.275569
70
0
0
VERTEX
8
Layer 1
10
17.330186
20
60.722419
70
0
0
VERTEX
8
Layer 1
10
17.143869
20
61.884522
70
0
0
VERTEX
8
Layer 1
10
17.125859
20
63.043573
70
0
0
VERTEX
8
Layer 1
10
17.276158
20
64.199598
70
0
0
VERTEX
8
Layer 1
10
17.594770
20
65.352622
70
0
0
VERTEX
8
Layer 1
10
17.375479
20
66.595559
70
0
0
VERTEX
8
Layer 1
10
17.015680
20
67.733774
70
0
0
VERTEX
8
Layer 1
10
16.515374
20
68.767270
70
0
0
VERTEX
8
Layer 1
10
15.874560
20
69.696050
70
0
0
VERTEX
8
Layer 1
10
15.093239
20
70.520117
70
0
0
VERTEX
8
Layer 1
10
14.171411
20
71.239474
70
0
0
VERTEX
8
Layer 1
10
13.109076
20
71.854124
70
0
0
VERTEX
8
Layer 1
10
11.906235
20
72.364071
70
0
0
VERTEX
8
Layer 1
10
8.334364
20
73.157820
70
0
0
VERTEX
8
Layer 1
10
8.202073
20
58.076589
70
0
0
VERTEX
8
Layer 1
10
7.894323
20
57.854869
70
0
0
VERTEX
8
Layer 1
10
7.540616
20
57.944298
70
0
0
VERTEX
8
Layer 1
10
-0.132292
20
79.772395
70
0
0
VERTEX
8
Layer 1
10
-0.132292
20
80.566144
70
0
0
VERTEX
8
Layer 1
10
3.776965
20
94.608325
70
0
0
VERTEX
8
Layer 1
10
7.540616
20
108.876525
70
0
0
VERTEX
8
Layer 1
10
8.334364
20
108.876525
70
0
0
VERTEX
8
Layer 1
10
8.517578
20
97.762254
70
0
0
VERTEX
8
Layer 1
10
8.863530
20
86.651553
70
0
0
VERTEX
8
Layer 1
10
14.948940
20
85.725513
70
0
0
VERTEX
8
Layer 1
10
16.840523
20
84.912317
70
0
0
VERTEX
8
Layer 1
10
18.520810
20
83.741141
70
0
0
VERTEX
8
Layer 1
10
18.563811
20
86.828361
70
0
0
VERTEX
8
Layer 1
10
18.917685
20
89.958841
70
0
0
VERTEX
8
Layer 1
10
18.653102
20
93.663003
70
0
0
VERTEX
8
Layer 1
10
19.182268
20
94.985918
70
0
0
VERTEX
8
Layer 1
10
19.182268
20
96.970290
70
0
0
VERTEX
8
Layer 1
10
11.509360
20
97.367165
70
0
0
VERTEX
8
Layer 1
10
11.244778
20
97.764039
70
0
0
VERTEX
8
Layer 1
10
13.361442
20
110.464023
70
0
0
VERTEX
8
Layer 1
10
13.096858
20
111.125481
70
0
0
VERTEX
8
Layer 1
10
14.684356
20
119.195262
70
0
0
VERTEX
8
Layer 1
10
14.419774
20
119.592137
70
0
0
VERTEX
8
Layer 1
10
15.424623
20
124.156359
70
0
0
VERTEX
8
Layer 1
10
16.271854
20
128.852542
70
0
0
VERTEX
8
Layer 1
10
17.431955
20
138.824298
70
0
0
VERTEX
8
Layer 1
10
19.182268
20
148.828558
70
0
0
VERTEX
8
Layer 1
10
19.278430
20
150.064045
70
0
0
VERTEX
8
Layer 1
10
19.182268
20
151.342097
70
0
0
VERTEX
8
Layer 1
10
19.691319
20
152.891991
70
0
0
VERTEX
8
Layer 1
10
19.976017
20
154.517093
70
0
0
VERTEX
8
Layer 1
10
19.711434
20
155.046259
70
0
0
VERTEX
8
Layer 1
10
20.452716
20
158.307810
70
0
0
VERTEX
8
Layer 1
10
20.902057
20
161.528542
70
0
0
VERTEX
8
Layer 1
10
21.299712
20
161.926893
70
0
0
VERTEX
8
Layer 1
10
21.828098
20
161.925417
70
0
0
VERTEX
8
Layer 1
10
31.617669
20
98.425497
70
0
0
VERTEX
8
Layer 1
10
31.439736
20
97.609093
70
0
0
VERTEX
8
Layer 1
10
30.956211
20
96.970290
70
0
0
VERTEX
8
Layer 1
10
27.467234
20
97.231665
70
0
0
VERTEX
8
Layer 1
10
23.944762
20
97.234873
70
0
0
VERTEX
8
Layer 1
10
24.606219
20
83.741141
70
0
0
VERTEX
8
Layer 1
10
26.286546
20
84.912317
70
0
0
VERTEX
8
Layer 1
10
28.178090
20
85.725513
70
0
0
VERTEX
8
Layer 1
10
34.263499
20
86.651553
70
0
0
VERTEX
8
Layer 1
10
34.453800
20
92.599842
70
0
0
VERTEX
8
Layer 1
10
34.263499
20
98.425497
70
0
0
VERTEX
8
Layer 1
10
34.792665
20
102.658825
70
0
0
VERTEX
8
Layer 1
10
34.792665
20
108.876525
70
0
0
VERTEX
8
Layer 1
10
35.586413
20
108.876525
70
0
0
VERTEX
8
Layer 1
10
39.308865
20
94.669940
70
0
0
VERTEX
8
Layer 1
10
43.259321
20
80.566144
70
0
0
VERTEX
8
Layer 1
10
43.259321
20
80.566144
70
0
0
SEQEND
8
Layer 1
 0 
ENDSEC
 0 
EOF